<?xml version="1.0" encoding="utf-8"?>
<svg id="master-artboard" viewBox="0 0 1200 1000" version="1.1" xmlns="http://www.w3.org/2000/svg" x="0px" y="0px" style="enable-background:new 0 0 1400 980;" width="1200px" height="1000px"><rect id="ee-background" x="0" y="0" width="1200" height="1000" style="fill: white; fill-opacity: 0; pointer-events: none;"/><defs><linearGradient id="gradient-0" gradientUnits="userSpaceOnUse" x1="532.2811279296875" y1="22.69647979736328" x2="532.2811279296875" y2="1002.6964721679688">
                <stop offset="0" style="stop-color: rgb(255, 255, 255);"/>
                <stop offset="1" style="stop-color: rgb(232, 255, 244);"/>
              </linearGradient><style id="ee-google-fonts">@import url(https://fonts.googleapis.com/css?family=Handlee:400);</style></defs>

<g id="XMLID_3_" transform="matrix(4.163985252380371, 0, 0, 4.163985252380371, -3021.66162109375, -789.5110473632812)">
			<linearGradient id="XMLID_23_" gradientUnits="userSpaceOnUse" x1="832.1062" y1="271.3765" x2="901.6764" y2="271.3765">
				<stop offset="0" style="stop-color:#97CB2D"/>
				<stop offset="1" style="stop-color:#81AE34"/>
			</linearGradient>
			<path id="XMLID_265_" class="st6" d="M866.9,200L866.9,200C866.9,200,866.9,200,866.9,200C866.9,200,866.9,200,866.9,200&#10;&#9;&#9;&#9;&#9;L866.9,200c-35.8,37.5-34.8,104.8-34.8,104.8l34.8,38v0l0,0l0,0v0l34.8-38C901.7,304.8,902.7,237.4,866.9,200z" style="fill: url('#XMLID_23_');"/>
			<linearGradient id="XMLID_24_" gradientUnits="userSpaceOnUse" x1="866.8913" y1="342.7766" x2="866.8913" y2="254.5239">
				<stop offset="0" style="stop-color:#231F20"/>
				<stop offset="7.941306e-03" style="stop-color:#231F20;stop-opacity:0.9921"/>
				<stop offset="1" style="stop-color:#231F20;stop-opacity:0"/>
			</linearGradient>
			<path id="XMLID_325_" class="st7" d="M838.8,254.5c-7,26.9-6.7,50.2-6.7,50.2l34.8,38v0l0,0l0,0v0l34.8-38c0,0,0.4-23.4-6.7-50.2&#10;&#9;&#9;&#9;&#9;H838.8z" style="opacity: 0.72; fill: url('#XMLID_24_');"/>
			<linearGradient id="XMLID_25_" gradientUnits="userSpaceOnUse" x1="792.286" y1="315.3362" x2="869.6695" y2="315.3362">
				<stop offset="0" style="stop-color:#97CB2D"/>
				<stop offset="1" style="stop-color:#81AE34"/>
			</linearGradient>
			<path id="XMLID_260_" class="st8" d="M801.7,246.3c83.2,50.5,69.1,117.7,63.3,135.9c-13.9-25.8-45.1-84.6-52.4-105.9&#10;&#9;&#9;&#9;&#9;c0,0,22.7,69.4,41.5,108.1C759.4,334.1,801.7,246.3,801.7,246.3z" style="fill: url('#XMLID_25_');"/>
			<linearGradient id="XMLID_26_" gradientUnits="userSpaceOnUse" x1="860.5858" y1="316.0671" x2="938.7963" y2="316.0671">
				<stop offset="0" style="stop-color:#81AE34"/>
				<stop offset="1" style="stop-color:#97CB2D"/>
			</linearGradient>
			<path id="XMLID_263_" class="st9" d="M930,247.3c-83.9,49.5-70.7,116.9-65.2,135.2c14.2-25.6,46.2-84,53.8-105.3&#10;&#9;&#9;&#9;&#9;c0,0-23.7,69.1-43,107.6C971.1,335.6,930,247.3,930,247.3z" style="fill: url('#XMLID_26_');"/>
			
				<radialGradient id="XMLID_27_" cx="909.8304" cy="321.137" r="27.9167" gradientTransform="matrix(1.0205 0.3356 -1.0026 2.5981 308.6469 -818.5137)" gradientUnits="userSpaceOnUse">
				<stop offset="0" style="stop-color:#FFFFFF"/>
				<stop offset="1" style="stop-color:#FFFFFF;stop-opacity:0"/>
			</radialGradient>
			<path id="XMLID_245_" class="st10" d="M875.6,384.8c95.5-49.2,54.4-137.5,54.4-137.5S954.1,336.7,875.6,384.8z" style="opacity: 0.4; fill: url('#XMLID_27_');"/>
			
				<radialGradient id="XMLID_28_" cx="831.9859" cy="293.5527" r="24.7578" gradientTransform="matrix(0.9858 -0.4145 1.493 3.0255 -427.6639 -249.7007)" gradientUnits="userSpaceOnUse">
				<stop offset="0" style="stop-color:#FFFFFF"/>
				<stop offset="1" style="stop-color:#FFFFFF;stop-opacity:0"/>
			</radialGradient>
			<path id="XMLID_5_" class="st11" d="M801.7,246.3c0,0,76.5,56.1,63.4,135.6C870.9,363.3,884.5,296.6,801.7,246.3z" style="opacity: 0.4; fill: url('#XMLID_28_');"/>
		</g><radialGradient id="XMLID_45_" cx="280.8538" cy="434.2472" r="76.586" gradientTransform="matrix(1.4711 0 0 0.2136 -232.5824 331.851)" gradientUnits="userSpaceOnUse">
		<stop offset="0" style="stop-color:#231F20"/>
		<stop offset="3.727704e-02" style="stop-color:#231F20;stop-opacity:0.9627"/>
		<stop offset="1" style="stop-color:#231F20;stop-opacity:0"/>
	</radialGradient><radialGradient id="XMLID_46_" cx="488.851" cy="434.2472" r="76.586" gradientTransform="matrix(1.4711 0 0 0.2136 -232.5824 331.851)" gradientUnits="userSpaceOnUse">
		<stop offset="0" style="stop-color:#231F20"/>
		<stop offset="3.727704e-02" style="stop-color:#231F20;stop-opacity:0.9627"/>
		<stop offset="1" style="stop-color:#231F20;stop-opacity:0"/>
	</radialGradient><radialGradient id="XMLID_47_" cx="747.8279" cy="434.2472" r="76.5861" gradientTransform="matrix(1.4711 0 0 0.2136 -232.5824 331.851)" gradientUnits="userSpaceOnUse">
		<stop offset="0" style="stop-color:#231F20"/>
		<stop offset="3.727704e-02" style="stop-color:#231F20;stop-opacity:0.9627"/>
		<stop offset="1" style="stop-color:#231F20;stop-opacity:0"/>
	</radialGradient><path d="M 998.500015 424.600006 A 129.800003 17.9 0 0 1 868.700012 442.500006 A 129.800003 17.9 0 0 1 738.900009 424.600006 A 129.800003 17.9 0 0 1 868.700012 406.700006 A 129.800003 17.9 0 0 1 998.500015 424.600006 Z" id="XMLID_7_" class="st29" style="opacity: 0.4; fill: url('#XMLID_47_');" transform="matrix(4.731381416320801, 0, 0, 4.731381416320801, -3503.802734375, -1134.9549560546875)"/><radialGradient id="XMLID_48_" cx="985.3934" cy="434.2472" r="76.586" gradientTransform="matrix(1.4711 0 0 0.2136 -232.5824 331.851)" gradientUnits="userSpaceOnUse">
		<stop offset="0" style="stop-color:#231F20"/>
		<stop offset="3.727704e-02" style="stop-color:#231F20;stop-opacity:0.9627"/>
		<stop offset="1" style="stop-color:#231F20;stop-opacity:0"/>
	</radialGradient><radialGradient id="XMLID_49_" cx="280.8538" cy="868.2522" r="76.586" gradientTransform="matrix(1.4711 0 0 0.2136 -232.5824 603.1267)" gradientUnits="userSpaceOnUse">
		<stop offset="0" style="stop-color:#231F20"/>
		<stop offset="3.727704e-02" style="stop-color:#231F20;stop-opacity:0.9627"/>
		<stop offset="1" style="stop-color:#231F20;stop-opacity:0"/>
	</radialGradient><radialGradient id="XMLID_50_" cx="488.851" cy="868.2522" r="76.586" gradientTransform="matrix(1.4711 0 0 0.2136 -232.5824 603.1267)" gradientUnits="userSpaceOnUse">
		<stop offset="0" style="stop-color:#231F20"/>
		<stop offset="3.727704e-02" style="stop-color:#231F20;stop-opacity:0.9627"/>
		<stop offset="1" style="stop-color:#231F20;stop-opacity:0"/>
	</radialGradient><radialGradient id="XMLID_51_" cx="747.8279" cy="868.2522" r="76.5861" gradientTransform="matrix(1.4711 0 0 0.2136 -232.5824 603.1267)" gradientUnits="userSpaceOnUse">
		<stop offset="0" style="stop-color:#231F20"/>
		<stop offset="3.727704e-02" style="stop-color:#231F20;stop-opacity:0.9627"/>
		<stop offset="1" style="stop-color:#231F20;stop-opacity:0"/>
	</radialGradient><radialGradient id="XMLID_52_" cx="985.3934" cy="868.2522" r="76.586" gradientTransform="matrix(1.4711 0 0 0.2136 -232.5824 603.1267)" gradientUnits="userSpaceOnUse">
		<stop offset="0" style="stop-color:#231F20"/>
		<stop offset="3.727704e-02" style="stop-color:#231F20;stop-opacity:0.9627"/>
		<stop offset="1" style="stop-color:#231F20;stop-opacity:0"/>
	</radialGradient>
<path d="M 328.9895935058594 280.3608703613281 C 328.9295959472656 280.85418701171875 328.8096008300781 281.70751953125 328.6296081542969 282.9208679199219 C 328.4496154785156 284.1341857910156 328.31292724609375 285.130859375 328.2196044921875 285.9108581542969 C 327.9329528808594 288.24420166015625 327.78961181640625 290.1708679199219 327.78961181640625 291.69085693359375 C 327.78961181640625 293.2108459472656 327.8429260253906 294.390869140625 327.9496154785156 295.2308654785156 C 328.0495910644531 296.0775146484375 328.21295166015625 296.87420654296875 328.4396057128906 297.620849609375 C 328.6729431152344 298.37420654296875 329.012939453125 298.967529296875 329.4595947265625 299.4008483886719 C 329.89959716796875 299.8408508300781 330.42626953125 300.06085205078125 331.03961181640625 300.06085205078125 C 331.9129333496094 300.06085205078125 332.686279296875 299.5875244140625 333.359619140625 298.640869140625 C 334.0329284667969 297.6875305175781 334.5596008300781 296.467529296875 334.9396057128906 294.9808654785156 C 335.3196105957031 293.4875183105469 335.6462707519531 291.9808654785156 335.91961669921875 290.4608459472656 C 336.19293212890625 288.9475402832031 336.4595947265625 287.467529296875 336.7196044921875 286.0208740234375 C 336.9729309082031 284.58087158203125 337.21295166015625 283.5942077636719 337.4396057128906 283.06085205078125 C 337.95294189453125 282.7208557128906 338.3429260253906 282.5508728027344 338.609619140625 282.5508728027344 C 338.87628173828125 282.5508728027344 339.0762634277344 282.5775146484375 339.2095947265625 282.630859375 C 339.32293701171875 283.544189453125 339.4396057128906 285.20086669921875 339.5596008300781 287.6008605957031 C 339.686279296875 290.0008544921875 339.859619140625 291.8675231933594 340.07958984375 293.20086669921875 C 340.2929382324219 294.52752685546875 340.5762634277344 295.65753173828125 340.9295959472656 296.5908508300781 C 341.2829284667969 297.51751708984375 341.8096008300781 298.2908630371094 342.5096130371094 298.9108581542969 C 343.2095947265625 299.5242004394531 344.02294921875 299.83087158203125 344.9496154785156 299.83087158203125 C 345.8695983886719 299.83087158203125 346.6229248046875 299.4042053222656 347.2095947265625 298.5508728027344 C 347.7962646484375 297.6975402832031 348.2229309082031 296.5575256347656 348.4895935058594 295.130859375 C 348.96295166015625 292.5908508300781 349.1996154785156 289.967529296875 349.1996154785156 287.2608642578125 C 349.1996154785156 284.55419921875 348.9729309082031 282.4441833496094 348.51959228515625 280.93084716796875 C 348.9929504394531 280.5841979980469 349.4295959472656 280.4108581542969 349.82958984375 280.4108581542969 C 350.2296142578125 280.4108581542969 350.5696105957031 280.72418212890625 350.849609375 281.3508605957031 C 351.1362609863281 281.9775390625 351.3362731933594 282.7742004394531 351.4496154785156 283.7408447265625 C 351.6562805175781 285.4875183105469 351.7596130371094 287.0741882324219 351.7596130371094 288.5008544921875 C 351.7596130371094 289.9208679199219 351.6296081542969 291.35418701171875 351.3695983886719 292.8008728027344 C 351.1029357910156 294.2408752441406 350.6896057128906 295.5841979980469 350.1296081542969 296.83087158203125 C 349.5696105957031 298.07086181640625 348.78961181640625 299.0575256347656 347.78961181640625 299.7908630371094 C 346.7962646484375 300.51751708984375 345.6429443359375 300.880859375 344.32958984375 300.880859375 C 343.4562683105469 300.8675231933594 342.6729431152344 300.6542053222656 341.9796142578125 300.2408752441406 C 341.2862854003906 299.8341979980469 340.7329406738281 299.3508605957031 340.3196105957031 298.7908630371094 C 339.89959716796875 298.2308654785156 339.51959228515625 297.4975280761719 339.1795959472656 296.5908508300781 C 338.686279296875 295.27752685546875 338.26959228515625 293.60418701171875 337.9295959472656 291.57086181640625 C 337.1296081542969 294.36419677734375 336.45294189453125 296.2908630371094 335.89959716796875 297.3508605957031 C 334.5529479980469 299.91754150390625 332.70294189453125 301.2108459472656 330.349609375 301.2308654785156 C 328.8296203613281 301.2308654785156 327.69293212890625 300.6775207519531 326.9396057128906 299.57086181640625 C 326.27294921875 298.5841979980469 325.8529357910156 297.20086669921875 325.6795959472656 295.4208679199219 C 325.62628173828125 294.6608581542969 325.599609375 293.7975158691406 325.599609375 292.83087158203125 C 325.599609375 289.65753173828125 326.1129455566406 285.61419677734375 327.1396179199219 280.70086669921875 C 327.6329345703125 280.4141845703125 328.0262756347656 280.2708740234375 328.3196105957031 280.2708740234375 C 328.6129455566406 280.2708740234375 328.8362731933594 280.3008728027344 328.9895935058594 280.3608703613281 ZM 355.1216735839844 294.7108459472656 L 355.38165283203125 281.95086669921875 C 355.38165283203125 280.9642028808594 355.32501220703125 280.2908630371094 355.211669921875 279.93084716796875 C 355.5516662597656 279.62420654296875 356.0716552734375 279.4708557128906 356.77166748046875 279.4708557128906 C 357.0583190917969 281.5041809082031 357.20166015625 284.11419677734375 357.20166015625 287.3008728027344 C 357.20166015625 288.2541809082031 357.114990234375 290.45751953125 356.9416809082031 293.9108581542969 C 357.8349914550781 289.1108703613281 359.4316711425781 286.7108459472656 361.7316589355469 286.7108459472656 C 362.5450134277344 286.7108459472656 363.17498779296875 287.140869140625 363.6216735839844 288.0008544921875 C 364.0683288574219 288.8675231933594 364.34832763671875 289.91754150390625 364.461669921875 291.1508483886719 C 364.57501220703125 292.3841857910156 364.6683349609375 293.6175231933594 364.7416687011719 294.8508605957031 C 364.93499755859375 297.81085205078125 365.46832275390625 299.2908630371094 366.3416748046875 299.2908630371094 C 366.3616638183594 299.2908630371094 366.5416564941406 299.23419189453125 366.88165283203125 299.120849609375 C 367.64166259765625 298.8941955566406 368.0683288574219 298.8375244140625 368.16168212890625 298.95086669921875 C 368.16168212890625 299.15753173828125 367.86834716796875 299.41754150390625 367.28167724609375 299.7308654785156 C 366.69500732421875 300.044189453125 366.1549987792969 300.20086669921875 365.66168212890625 300.20086669921875 C 364.8216552734375 300.20086669921875 364.1783447265625 299.7708740234375 363.7316589355469 298.9108581542969 C 363.2850036621094 298.044189453125 363.01165771484375 296.99420166015625 362.91168212890625 295.7608642578125 C 362.80499267578125 294.52752685546875 362.72833251953125 293.2975158691406 362.6816711425781 292.07086181640625 C 362.635009765625 290.8508605957031 362.5083312988281 289.8075256347656 362.3016662597656 288.94085693359375 C 362.0883483886719 288.0741882324219 361.7349853515625 287.640869140625 361.2416687011719 287.640869140625 C 360.635009765625 287.640869140625 360.0816650390625 288.3008728027344 359.5816650390625 289.620849609375 C 359.07501220703125 290.94085693359375 358.6816711425781 292.39752197265625 358.40167236328125 293.9908752441406 C 358.114990234375 295.5908508300781 357.7683410644531 297.0475158691406 357.3616638183594 298.3608703613281 C 356.9483337402344 299.68084716796875 356.5350036621094 300.3408508300781 356.1216735839844 300.3408508300781 C 355.4549865722656 300.3408508300781 355.1216735839844 298.4642028808594 355.1216735839844 294.7108459472656 ZM 369.82586669921875 288.7808532714844 C 369.82586669921875 288.7808532714844 370.06585693359375 288.4108581542969 370.5458679199219 287.6708679199219 C 371.0258483886719 286.93084716796875 372.1758728027344 286.56085205078125 373.995849609375 286.56085205078125 C 375.8225402832031 286.56085205078125 377.2792053222656 287.3008728027344 378.3658752441406 288.7808532714844 C 379.4591979980469 290.2608642578125 380.005859375 291.9475402832031 380.005859375 293.8408508300781 C 380.005859375 295.7275390625 379.4092102050781 297.3275146484375 378.2158508300781 298.640869140625 C 377.015869140625 299.9475402832031 375.495849609375 300.6008605957031 373.6558532714844 300.6008605957031 C 371.81585693359375 300.6008605957031 370.47918701171875 300.0841979980469 369.6458740234375 299.0508728027344 C 368.8058776855469 298.01751708984375 368.3858642578125 296.56085205078125 368.3858642578125 294.68084716796875 C 368.3858642578125 292.2275390625 368.8658752441406 290.2608642578125 369.82586669921875 288.7808532714844 M 371.08587646484375 290.2808532714844 C 371.08587646484375 290.2808532714844 371.0191955566406 290.467529296875 370.8858642578125 290.8408508300781 C 370.7591857910156 291.2142028808594 370.6358642578125 291.7708740234375 370.515869140625 292.5108642578125 C 370.3891906738281 293.2508544921875 370.32586669921875 293.94085693359375 370.32586669921875 294.58087158203125 C 370.32586669921875 295.2142028808594 370.3725280761719 295.7908630371094 370.4658508300781 296.31085205078125 C 370.56585693359375 296.8375244140625 370.72918701171875 297.3508605957031 370.95587158203125 297.8508605957031 C 371.1825256347656 298.3575134277344 371.52252197265625 298.7575378417969 371.9758605957031 299.0508728027344 C 372.43585205078125 299.3442077636719 372.9758605957031 299.4908752441406 373.5958557128906 299.4908752441406 C 374.86920166015625 299.4908752441406 375.939208984375 298.967529296875 376.8058776855469 297.9208679199219 C 377.6658630371094 296.880859375 378.0958557128906 295.620849609375 378.0958557128906 294.140869140625 C 378.0958557128906 292.6608581542969 377.7025146484375 291.2208557128906 376.9158630371094 289.82086181640625 C 376.12921142578125 288.4275207519531 375.1658630371094 287.7308654785156 374.0258483886719 287.7308654785156 C 373.3458557128906 287.7308654785156 372.74920654296875 287.967529296875 372.2358703613281 288.44085693359375 C 371.7225341796875 288.9141845703125 371.3392028808594 289.52752685546875 371.08587646484375 290.2808532714844 Z" transform="matrix(3.6973037719726562, 0, 0, 3.6973037719726562, -1006.726806640625, -306.61614990234375)" style="fill: rgb(139, 187, 49); white-space: pre; color: rgb(51, 51, 51);"/><path d="M 1016.4896240234375 607.8294677734375 L 1016.349609375 619.9194946289062 C 1016.349609375 621.7928466796875 1016.40625 623.566162109375 1016.5195922851562 625.239501953125 C 1017.6062622070312 625.3128051757812 1018.5962524414062 625.3494873046875 1019.4896240234375 625.3494873046875 L 1025.2196044921875 625.239501953125 C 1026.1129150390625 625.239501953125 1026.5595703125 625.4927978515625 1026.5595703125 625.99951171875 C 1026.5595703125 626.5994873046875 1024.649658203125 626.8994750976562 1020.82958984375 626.8994750976562 C 1019.896240234375 626.8994750976562 1018.7029418945312 626.8528442382812 1017.2495727539062 626.7594604492188 C 1015.7962646484375 626.6727905273438 1014.916259765625 626.5294799804688 1014.609619140625 626.3294677734375 C 1014.5162353515625 624.40283203125 1014.4696044921875 621.2561645507812 1014.4696044921875 616.8894653320312 L 1014.609619140625 607.2794799804688 C 1015.0762939453125 606.9194946289062 1015.4562377929688 606.739501953125 1015.7495727539062 606.739501953125 C 1016.242919921875 606.739501953125 1016.4896240234375 607.1028442382812 1016.4896240234375 607.8294677734375 ZM 1029.444580078125 620.8695068359375 C 1029.4112548828125 621.2361450195312 1029.39453125 621.4827880859375 1029.39453125 621.6094970703125 C 1029.39453125 622.7028198242188 1029.724609375 623.5494995117188 1030.384521484375 624.1494750976562 C 1031.05126953125 624.74951171875 1031.837890625 625.0494995117188 1032.74462890625 625.0494995117188 C 1033.657958984375 625.0494995117188 1034.4012451171875 624.9194946289062 1034.974609375 624.6594848632812 C 1035.5479736328125 624.4061279296875 1035.9613037109375 624.1361694335938 1036.214599609375 623.8494873046875 C 1036.867919921875 623.0294799804688 1037.4678955078125 622.6195068359375 1038.0145263671875 622.6195068359375 C 1038.214599609375 622.6195068359375 1038.4512939453125 622.6727905273438 1038.724609375 622.7794799804688 C 1038.5379638671875 623.6727905273438 1037.8511962890625 624.4861450195312 1036.66455078125 625.219482421875 C 1035.47119140625 625.95947265625 1033.974609375 626.3294677734375 1032.174560546875 626.3294677734375 C 1030.9012451171875 626.3294677734375 1029.8045654296875 625.9227905273438 1028.884521484375 625.1094970703125 C 1027.964599609375 624.3027954101562 1027.504638671875 623.199462890625 1027.504638671875 621.7994995117188 C 1027.504638671875 620.3994750976562 1027.7845458984375 619.0394897460938 1028.3446044921875 617.719482421875 C 1028.89794921875 616.3994750976562 1029.6978759765625 615.2728271484375 1030.74462890625 614.3394775390625 C 1031.791259765625 613.3994750976562 1032.8546142578125 612.9295043945312 1033.9345703125 612.9295043945312 C 1035.0145263671875 612.9295043945312 1035.887939453125 613.15283203125 1036.5545654296875 613.5994873046875 C 1037.214599609375 614.046142578125 1037.5445556640625 614.6961669921875 1037.5445556640625 615.5494995117188 C 1037.5445556640625 617.1294555664062 1036.8411865234375 618.4361572265625 1035.4345703125 619.469482421875 C 1034.0279541015625 620.4961547851562 1032.53125 621.0094604492188 1030.944580078125 621.0094604492188 C 1030.5245361328125 621.0094604492188 1030.0245361328125 620.9628295898438 1029.444580078125 620.8695068359375 M 1031.5145263671875 619.969482421875 C 1032.3746337890625 619.969482421875 1033.1412353515625 619.6961669921875 1033.8145751953125 619.1494750976562 C 1034.4879150390625 618.6028442382812 1034.964599609375 618.0294799804688 1035.24462890625 617.4295043945312 C 1035.5245361328125 616.8294677734375 1035.66455078125 616.2861328125 1035.66455078125 615.7994995117188 C 1035.66455078125 615.30615234375 1035.474609375 614.872802734375 1035.0946044921875 614.49951171875 C 1034.714599609375 614.1261596679688 1034.2679443359375 613.9395141601562 1033.754638671875 613.9395141601562 C 1032.847900390625 613.9395141601562 1032.0079345703125 614.566162109375 1031.234619140625 615.8194580078125 C 1030.4613037109375 617.0794677734375 1029.9112548828125 618.3828125 1029.5845947265625 619.7294921875 C 1030.384521484375 619.8894653320312 1031.0279541015625 619.969482421875 1031.5145263671875 619.969482421875 ZM 1049.5782470703125 618.5494995117188 L 1049.438232421875 621.6895141601562 C 1049.438232421875 623.2694702148438 1049.62158203125 624.3328247070312 1049.98828125 624.8794555664062 C 1050.208251953125 625.2461547851562 1050.50830078125 625.4295043945312 1050.8883056640625 625.4295043945312 C 1050.994873046875 625.4295043945312 1051.1483154296875 625.40283203125 1051.3482666015625 625.3494873046875 C 1051.7349853515625 625.2361450195312 1052.054931640625 625.2894897460938 1052.3082275390625 625.5094604492188 C 1052.181640625 626.142822265625 1051.544921875 626.45947265625 1050.3983154296875 626.45947265625 C 1049.6182861328125 626.45947265625 1049.0982666015625 626.1328125 1048.8382568359375 625.4794921875 C 1048.6383056640625 624.9927978515625 1048.494873046875 624.3794555664062 1048.4083251953125 623.6394653320312 C 1048.31494140625 622.9061279296875 1048.2415771484375 622.40283203125 1048.188232421875 622.1294555664062 C 1047.00830078125 624.3828125 1045.861572265625 625.7561645507812 1044.748291015625 626.24951171875 C 1044.188232421875 626.5028076171875 1043.534912109375 626.6294555664062 1042.7882080078125 626.6294555664062 C 1042.0416259765625 626.6294555664062 1041.4649658203125 626.2694702148438 1041.0582275390625 625.5494995117188 C 1040.6448974609375 624.8294677734375 1040.438232421875 623.7794799804688 1040.438232421875 622.3994750976562 C 1040.438232421875 621.0194702148438 1040.6649169921875 619.5694580078125 1041.1182861328125 618.0494995117188 C 1041.5782470703125 616.5294799804688 1042.244873046875 615.2461547851562 1043.1182861328125 614.199462890625 C 1043.9849853515625 613.15283203125 1044.938232421875 612.6294555664062 1045.978271484375 612.6294555664062 C 1047.4715576171875 612.6294555664062 1048.4615478515625 613.24951171875 1048.9482421875 614.489501953125 C 1049.3682861328125 615.5428466796875 1049.5782470703125 616.8961791992188 1049.5782470703125 618.5494995117188 M 1042.8983154296875 617.6694946289062 C 1042.8983154296875 617.6694946289062 1042.8349609375 617.9161376953125 1042.708251953125 618.4094848632812 C 1042.574951171875 618.90283203125 1042.4449462890625 619.5928344726562 1042.3182373046875 620.4794921875 C 1042.191650390625 621.3594970703125 1042.1282958984375 622.1394653320312 1042.1282958984375 622.8194580078125 C 1042.1282958984375 623.5061645507812 1042.2716064453125 624.0928344726562 1042.5582275390625 624.5794677734375 C 1042.8382568359375 625.0728149414062 1043.2049560546875 625.3194580078125 1043.6583251953125 625.3194580078125 C 1044.6383056640625 625.3194580078125 1045.5849609375 624.392822265625 1046.498291015625 622.5394897460938 C 1047.4049072265625 620.6795043945312 1047.8582763671875 618.949462890625 1047.8582763671875 617.3494873046875 C 1047.8582763671875 616.316162109375 1047.5849609375 615.4628295898438 1047.0382080078125 614.7894897460938 C 1046.67822265625 614.3494873046875 1046.20166015625 614.1294555664062 1045.6082763671875 614.1294555664062 C 1045.014892578125 614.1294555664062 1044.478271484375 614.4728393554688 1043.998291015625 615.1594848632812 C 1043.518310546875 615.8394775390625 1043.151611328125 616.6761474609375 1042.8983154296875 617.6694946289062 ZM 1055.25732421875 626.5994873046875 C 1054.9239501953125 626.5994873046875 1054.75732421875 623.8428344726562 1054.75732421875 618.3294677734375 C 1054.75732421875 616.0028076171875 1054.7506103515625 614.5961303710938 1054.7373046875 614.1094970703125 L 1054.187255859375 614.1094970703125 C 1053.9339599609375 614.1094970703125 1053.7340087890625 614.1028442382812 1053.5872802734375 614.0894775390625 C 1053.440673828125 614.0828247070312 1053.25390625 614.0728149414062 1053.02734375 614.0595092773438 C 1052.8006591796875 614.0527954101562 1052.62060546875 614.0328369140625 1052.4873046875 613.99951171875 C 1052.3472900390625 613.95947265625 1052.2039794921875 613.912841796875 1052.0572509765625 613.8594970703125 C 1051.783935546875 613.7528076171875 1051.6473388671875 613.5628051757812 1051.6473388671875 613.2894897460938 C 1051.6473388671875 612.9428100585938 1052.2139892578125 612.7694702148438 1053.3472900390625 612.7694702148438 C 1053.833984375 612.7694702148438 1054.27734375 612.7861328125 1054.67724609375 612.8194580078125 C 1054.697265625 612.45947265625 1054.7105712890625 611.9927978515625 1054.71728515625 611.4194946289062 C 1054.7305908203125 610.8461303710938 1054.743896484375 610.3994750976562 1054.75732421875 610.0794677734375 C 1054.77734375 609.7594604492188 1054.8006591796875 609.372802734375 1054.8272705078125 608.9194946289062 C 1054.85400390625 608.4661254882812 1054.900634765625 608.11279296875 1054.96728515625 607.8594970703125 C 1055.033935546875 607.6061401367188 1055.12060546875 607.3194580078125 1055.227294921875 606.99951171875 C 1055.333984375 606.6795043945312 1055.4805908203125 606.4361572265625 1055.667236328125 606.2694702148438 C 1055.8472900390625 606.1094970703125 1056.053955078125 605.9461669921875 1056.2872314453125 605.7794799804688 C 1056.707275390625 605.4728393554688 1057.4039306640625 605.3194580078125 1058.3773193359375 605.3194580078125 C 1059.3505859375 605.3194580078125 1060.0706787109375 605.5595092773438 1060.5372314453125 606.0394897460938 C 1060.997314453125 606.526123046875 1061.41064453125 607.3394775390625 1061.77734375 608.4794921875 C 1061.50390625 608.8128051757812 1061.1839599609375 608.9794921875 1060.8172607421875 608.9794921875 C 1060.690673828125 608.9794921875 1060.56396484375 608.95947265625 1060.437255859375 608.9194946289062 C 1060.110595703125 608.046142578125 1059.81396484375 607.4561767578125 1059.5472412109375 607.1494750976562 C 1059.2872314453125 606.836181640625 1058.9306640625 606.6795043945312 1058.477294921875 606.6795043945312 C 1058.017333984375 606.6795043945312 1057.6739501953125 606.7628173828125 1057.447265625 606.9295043945312 C 1057.2205810546875 607.0961303710938 1057.0439453125 607.30615234375 1056.917236328125 607.5595092773438 C 1056.6439208984375 608.1061401367188 1056.50732421875 609.4227905273438 1056.50732421875 611.5094604492188 C 1056.50732421875 611.6028442382812 1056.50732421875 611.7661743164062 1056.50732421875 611.99951171875 C 1056.50732421875 612.239501953125 1056.50732421875 612.45947265625 1056.50732421875 612.6594848632812 L 1058.8272705078125 612.4395141601562 C 1059.7340087890625 612.4395141601562 1060.187255859375 612.6494750976562 1060.187255859375 613.0694580078125 C 1060.187255859375 613.3428344726562 1059.9705810546875 613.5228271484375 1059.5372314453125 613.6094970703125 C 1059.0972900390625 613.7028198242188 1058.5472412109375 613.7594604492188 1057.8873291015625 613.7794799804688 C 1057.2205810546875 613.7994995117188 1056.7606201171875 613.8528442382812 1056.50732421875 613.9395141601562 C 1056.4739990234375 614.4528198242188 1056.457275390625 615.122802734375 1056.457275390625 615.949462890625 C 1056.457275390625 616.776123046875 1056.5006103515625 618.086181640625 1056.5872802734375 619.8794555664062 C 1056.6806640625 621.6661376953125 1056.727294921875 623.0328369140625 1056.727294921875 623.9794921875 C 1056.727294921875 624.9261474609375 1056.630615234375 625.5994873046875 1056.437255859375 625.99951171875 C 1056.2506103515625 626.3994750976562 1055.8572998046875 626.5994873046875 1055.25732421875 626.5994873046875 ZM 1068.3778076171875 615.49951171875 C 1068.211181640625 615.0794677734375 1067.901123046875 614.74951171875 1067.4478759765625 614.5094604492188 C 1066.9945068359375 614.276123046875 1066.43115234375 614.1594848632812 1065.7578125 614.1594848632812 C 1065.08447265625 614.1594848632812 1064.451171875 614.3594970703125 1063.8577880859375 614.7594604492188 C 1063.271240234375 615.1594848632812 1062.9779052734375 615.6961669921875 1062.9779052734375 616.3695068359375 C 1062.9779052734375 617.0428466796875 1063.2545166015625 617.576171875 1063.807861328125 617.969482421875 C 1064.3612060546875 618.3561401367188 1065.0345458984375 618.6494750976562 1065.827880859375 618.8494873046875 C 1066.614501953125 619.0494995117188 1067.4078369140625 619.2628173828125 1068.2078857421875 619.489501953125 C 1069.0078125 619.7161254882812 1069.6878662109375 620.0894775390625 1070.247802734375 620.6094970703125 C 1070.8011474609375 621.1294555664062 1071.077880859375 621.80615234375 1071.077880859375 622.6394653320312 C 1071.077880859375 623.8594970703125 1070.5711669921875 624.7894897460938 1069.557861328125 625.4295043945312 C 1068.5511474609375 626.0628051757812 1067.337890625 626.3794555664062 1065.9178466796875 626.3794555664062 C 1065.08447265625 626.3794555664062 1063.98779296875 626.15283203125 1062.6278076171875 625.699462890625 C 1061.2745361328125 625.2461547851562 1060.597900390625 624.699462890625 1060.597900390625 624.0595092773438 C 1060.597900390625 623.586181640625 1060.997802734375 623.3494873046875 1061.7978515625 623.3494873046875 C 1062.037841796875 623.3494873046875 1062.347900390625 623.4961547851562 1062.7279052734375 623.7894897460938 C 1063.89453125 624.642822265625 1065.08447265625 625.0694580078125 1066.2978515625 625.0694580078125 C 1066.9578857421875 625.0694580078125 1067.5245361328125 624.9628295898438 1067.997802734375 624.74951171875 C 1068.8712158203125 624.3294677734375 1069.307861328125 623.6561279296875 1069.307861328125 622.7294921875 C 1069.307861328125 622.162841796875 1069.02783203125 621.7061767578125 1068.4678955078125 621.3594970703125 C 1067.91455078125 621.0128173828125 1067.2412109375 620.739501953125 1066.4478759765625 620.5394897460938 C 1065.6611328125 620.3394775390625 1064.8677978515625 620.122802734375 1064.06787109375 619.8894653320312 C 1063.267822265625 619.6494750976562 1062.587890625 619.2528076171875 1062.02783203125 618.699462890625 C 1061.4744873046875 618.1461791992188 1061.1978759765625 617.4428100585938 1061.1978759765625 616.5894775390625 C 1061.1978759765625 615.4761352539062 1061.6978759765625 614.576171875 1062.6978759765625 613.8894653320312 C 1063.6978759765625 613.1961669921875 1064.9345703125 612.8494873046875 1066.4078369140625 612.8494873046875 C 1067.4078369140625 612.8494873046875 1068.314453125 613.1094970703125 1069.1278076171875 613.6294555664062 C 1069.9345703125 614.1494750976562 1070.337890625 614.8994750976562 1070.337890625 615.8794555664062 C 1070.337890625 616.5328369140625 1069.9644775390625 616.8594970703125 1069.2178955078125 616.8594970703125 C 1068.9111328125 616.8594970703125 1068.7078857421875 616.80615234375 1068.6077880859375 616.699462890625 C 1068.5078125 616.586181640625 1068.4544677734375 616.3894653320312 1068.4478759765625 616.1094970703125 C 1068.4345703125 615.8294677734375 1068.4111328125 615.6261596679688 1068.3778076171875 615.49951171875 Z" transform="matrix(3.275169849395752, 0, 0, 3.275169849395752, -2545.96875, -1252.52001953125)" style="fill: rgb(139, 187, 49); white-space: pre; color: rgb(51, 51, 51); stroke: rgb(0, 0, 0); stroke-width: 0;"/></svg>